<svg width="100%" height="100%" viewBox="0 0 600 90" fill="none" xmlns="http://www.w3.org/2000/svg">
<path d="M0 12C0 5.37258 5.37258 0 12 0H588C594.627 0 600 5.37258 600 12V78C600 84.6274 594.627 90 588 90H12C5.37257 90 0 84.6274 0 78V12Z" fill="#FEE500"/>
<path d="M251.008 38.624C250.896 40.3227 250.541 41.9747 249.944 43.58C249.365 45.1853 248.572 46.716 247.564 48.172C246.575 49.6093 245.38 50.9533 243.98 52.204C242.58 53.436 241.012 54.528 239.276 55.48C239.127 55.5733 238.968 55.6107 238.8 55.592C238.651 55.5733 238.529 55.4893 238.436 55.34L237.316 53.772C237.223 53.6227 237.195 53.4733 237.232 53.324C237.269 53.1747 237.363 53.0627 237.512 52.988C239.267 52.036 240.825 50.9253 242.188 49.656C243.551 48.3867 244.68 46.996 245.576 45.484C244.419 45.596 243.196 45.68 241.908 45.736C240.639 45.792 239.444 45.8293 238.324 45.848C238.249 45.848 238.165 45.8107 238.072 45.736C237.979 45.6613 237.932 45.5493 237.932 45.4V43.58C237.932 43.468 237.979 43.3747 238.072 43.3C238.165 43.2253 238.24 43.188 238.296 43.188C238.987 43.188 239.705 43.1787 240.452 43.16C241.217 43.1227 241.973 43.0853 242.72 43.048C243.485 43.0107 244.223 42.9733 244.932 42.936C245.641 42.8987 246.295 42.852 246.892 42.796C247.041 42.348 247.163 41.9 247.256 41.452C247.368 41.004 247.471 40.5653 247.564 40.136C247.62 39.7627 247.592 39.52 247.48 39.408C247.387 39.2773 247.163 39.212 246.808 39.212H238.94C238.679 39.212 238.548 39.0813 238.548 38.82V36.86C238.548 36.636 238.679 36.524 238.94 36.524H249.048C249.888 36.524 250.439 36.7013 250.7 37.056C250.961 37.392 251.064 37.9147 251.008 38.624ZM262.124 46.66C262.124 46.7533 262.077 46.8467 261.984 46.94C261.909 47.0147 261.816 47.052 261.704 47.052H257.924V60.632C257.924 60.8747 257.803 60.996 257.56 60.996H255.068C254.825 60.996 254.704 60.8747 254.704 60.632V34.788C254.704 34.5453 254.825 34.424 255.068 34.424H257.56C257.803 34.424 257.924 34.5453 257.924 34.788V44.364H261.704C261.816 44.364 261.909 44.4013 261.984 44.476C262.077 44.532 262.124 44.6067 262.124 44.7V46.66Z" fill="black" fill-opacity="0.85"/>
<path d="M277.34 38.624C277.228 40.3227 276.873 41.9747 276.276 43.58C275.697 45.1853 274.904 46.716 273.896 48.172C272.907 49.6093 271.712 50.9533 270.312 52.204C268.912 53.436 267.344 54.528 265.608 55.48C265.459 55.5733 265.3 55.6107 265.132 55.592C264.983 55.5733 264.861 55.4893 264.768 55.34L263.648 53.772C263.555 53.6227 263.527 53.4733 263.564 53.324C263.601 53.1747 263.695 53.0627 263.844 52.988C265.599 52.036 267.157 50.9253 268.52 49.656C269.883 48.3867 271.012 46.996 271.908 45.484C270.751 45.596 269.528 45.68 268.24 45.736C266.971 45.792 265.776 45.8293 264.656 45.848C264.581 45.848 264.497 45.8107 264.404 45.736C264.311 45.6613 264.264 45.5493 264.264 45.4V43.58C264.264 43.468 264.311 43.3747 264.404 43.3C264.497 43.2253 264.572 43.188 264.628 43.188C265.319 43.188 266.037 43.1787 266.784 43.16C267.549 43.1227 268.305 43.0853 269.052 43.048C269.817 43.0107 270.555 42.9733 271.264 42.936C271.973 42.8987 272.627 42.852 273.224 42.796C273.373 42.348 273.495 41.9 273.588 41.452C273.7 41.004 273.803 40.5653 273.896 40.136C273.952 39.7627 273.924 39.52 273.812 39.408C273.719 39.2773 273.495 39.212 273.14 39.212H265.272C265.011 39.212 264.88 39.0813 264.88 38.82V36.86C264.88 36.636 265.011 36.524 265.272 36.524H275.38C276.22 36.524 276.771 36.7013 277.032 37.056C277.293 37.392 277.396 37.9147 277.34 38.624ZM288.456 46.66C288.456 46.7533 288.409 46.8467 288.316 46.94C288.241 47.0147 288.148 47.052 288.036 47.052H284.256V60.632C284.256 60.8747 284.135 60.996 283.892 60.996H281.4C281.157 60.996 281.036 60.8747 281.036 60.632V34.788C281.036 34.5453 281.157 34.424 281.4 34.424H283.892C284.135 34.424 284.256 34.5453 284.256 34.788V44.364H288.036C288.148 44.364 288.241 44.4013 288.316 44.476C288.409 44.532 288.456 44.6067 288.456 44.7V46.66Z" fill="black" fill-opacity="0.85"/>
<path d="M314.396 56.04C314.396 56.1333 314.349 56.2267 314.256 56.32C314.163 56.4133 314.069 56.46 313.976 56.46H289.588C289.476 56.46 289.383 56.4133 289.308 56.32C289.233 56.2267 289.196 56.1333 289.196 56.04V54.22C289.196 53.9213 289.327 53.772 289.588 53.772H300.172V48.592C299.071 48.48 298.053 48.256 297.12 47.92C296.205 47.5653 295.412 47.1173 294.74 46.576C294.068 46.0347 293.545 45.4093 293.172 44.7C292.799 43.972 292.612 43.1693 292.612 42.292C292.612 41.3213 292.845 40.444 293.312 39.66C293.779 38.876 294.423 38.204 295.244 37.644C296.065 37.084 297.036 36.6547 298.156 36.356C299.276 36.0573 300.489 35.908 301.796 35.908C303.103 35.908 304.316 36.0573 305.436 36.356C306.556 36.6547 307.527 37.084 308.348 37.644C309.169 38.204 309.804 38.876 310.252 39.66C310.719 40.444 310.952 41.3213 310.952 42.292C310.952 43.1693 310.765 43.972 310.392 44.7C310.019 45.4093 309.496 46.0347 308.824 46.576C308.152 47.1173 307.349 47.5653 306.416 47.92C305.501 48.256 304.493 48.48 303.392 48.592V53.772H313.976C314.069 53.772 314.163 53.8187 314.256 53.912C314.349 54.0053 314.396 54.108 314.396 54.22V56.04ZM301.796 38.568C301.012 38.568 300.265 38.6613 299.556 38.848C298.847 39.016 298.221 39.268 297.68 39.604C297.157 39.9213 296.737 40.3133 296.42 40.78C296.103 41.228 295.944 41.732 295.944 42.292C295.944 42.852 296.103 43.3653 296.42 43.832C296.737 44.2987 297.157 44.7 297.68 45.036C298.221 45.3533 298.847 45.6053 299.556 45.792C300.265 45.96 301.012 46.044 301.796 46.044C302.58 46.044 303.327 45.96 304.036 45.792C304.745 45.6053 305.361 45.3533 305.884 45.036C306.425 44.7 306.845 44.2987 307.144 43.832C307.461 43.3653 307.62 42.852 307.62 42.292C307.62 41.732 307.461 41.228 307.144 40.78C306.845 40.3133 306.425 39.9213 305.884 39.604C305.361 39.268 304.745 39.016 304.036 38.848C303.327 38.6613 302.58 38.568 301.796 38.568Z" fill="black" fill-opacity="0.85"/>
<path d="M348.576 56.04C348.576 56.1333 348.529 56.2267 348.436 56.32C348.342 56.4133 348.249 56.46 348.156 56.46H323.768C323.656 56.46 323.562 56.4133 323.488 56.32C323.413 56.2267 323.376 56.1333 323.376 56.04V54.276C323.376 54.164 323.413 54.0613 323.488 53.968C323.562 53.8747 323.656 53.828 323.768 53.828H334.38V49.656H329.368C328.957 49.656 328.621 49.628 328.36 49.572C328.098 49.516 327.893 49.4133 327.744 49.264C327.594 49.1147 327.492 48.928 327.436 48.704C327.38 48.4613 327.352 48.1533 327.352 47.78V43.272C327.352 42.8987 327.38 42.6 327.436 42.376C327.492 42.1333 327.594 41.9467 327.744 41.816C327.893 41.6667 328.098 41.5733 328.36 41.536C328.621 41.48 328.957 41.452 329.368 41.452H341.016C341.202 41.452 341.314 41.4333 341.352 41.396C341.408 41.34 341.436 41.2093 341.436 41.004V38.82C341.436 38.6147 341.408 38.5027 341.352 38.484C341.314 38.4467 341.202 38.428 341.016 38.428H327.828C327.734 38.428 327.65 38.3907 327.576 38.316C327.501 38.2227 327.464 38.1293 327.464 38.036V36.16C327.464 36.0667 327.501 35.9827 327.576 35.908C327.65 35.8333 327.734 35.796 327.828 35.796H342.556C343.34 35.796 343.872 35.9267 344.152 36.188C344.432 36.4307 344.572 36.916 344.572 37.644V42.18C344.572 42.908 344.432 43.4027 344.152 43.664C343.872 43.9067 343.34 44.028 342.556 44.028H330.88C330.693 44.028 330.581 44.0467 330.544 44.084C330.506 44.1213 330.488 44.2333 330.488 44.42V46.632C330.488 46.8373 330.506 46.968 330.544 47.024C330.6 47.0613 330.721 47.08 330.908 47.08H344.796C344.889 47.08 344.973 47.1173 345.048 47.192C345.122 47.248 345.16 47.3227 345.16 47.416V49.292C345.16 49.3853 345.113 49.4693 345.02 49.544C344.945 49.6187 344.87 49.656 344.796 49.656H337.6V53.828H348.156C348.249 53.828 348.342 53.884 348.436 53.996C348.529 54.0893 348.576 54.1827 348.576 54.276V56.04Z" fill="black" fill-opacity="0.85"/>
<path d="M374.908 55.872C374.908 55.9653 374.861 56.0587 374.768 56.152C374.674 56.2453 374.581 56.292 374.488 56.292H350.1C349.988 56.292 349.894 56.2453 349.82 56.152C349.745 56.0587 349.708 55.9653 349.708 55.872V54.024C349.708 53.912 349.745 53.8187 349.82 53.744C349.894 53.6507 349.988 53.604 350.1 53.604H366.984C367.282 51.924 367.506 49.9267 367.656 47.612C367.824 45.2787 367.908 42.7867 367.908 40.136C367.908 39.8187 367.87 39.5947 367.796 39.464C367.721 39.3147 367.525 39.24 367.208 39.24H353.656C353.562 39.24 353.478 39.2027 353.404 39.128C353.329 39.0347 353.292 38.9413 353.292 38.848V37C353.292 36.9067 353.329 36.8227 353.404 36.748C353.478 36.6547 353.562 36.608 353.656 36.608H369.252C370.073 36.608 370.596 36.8227 370.82 37.252C371.062 37.6627 371.184 38.2133 371.184 38.904C371.184 41.4053 371.109 43.8787 370.96 46.324C370.829 48.7693 370.558 51.196 370.148 53.604H374.488C374.581 53.604 374.674 53.6507 374.768 53.744C374.861 53.8373 374.908 53.9307 374.908 54.024V55.872Z" fill="black" fill-opacity="0.85"/>
<path d="M399.196 60.128C399.196 60.24 399.149 60.324 399.056 60.38C398.962 60.436 398.869 60.464 398.776 60.464H384.272C383.432 60.464 382.862 60.3147 382.564 60.016C382.284 59.7173 382.144 59.204 382.144 58.476V52.148C382.144 52.0547 382.181 51.9707 382.256 51.896C382.349 51.8027 382.442 51.756 382.536 51.756H384.972C385.084 51.756 385.177 51.8027 385.252 51.896C385.345 51.9707 385.392 52.0547 385.392 52.148V57.328C385.392 57.5147 385.429 57.636 385.504 57.692C385.578 57.748 385.709 57.776 385.896 57.776H398.776C398.869 57.776 398.962 57.8133 399.056 57.888C399.149 57.944 399.196 58.0187 399.196 58.112V60.128ZM398.328 52.932C398.328 53.1747 398.206 53.296 397.964 53.296H395.472C395.229 53.296 395.108 53.1653 395.108 52.904V34.788C395.108 34.5453 395.229 34.424 395.472 34.424H397.964C398.206 34.424 398.328 34.5453 398.328 34.788V52.932ZM391.132 42.32C391.132 43.2533 390.964 44.1307 390.628 44.952C390.292 45.7733 389.816 46.492 389.2 47.108C388.602 47.7053 387.884 48.1813 387.044 48.536C386.204 48.8907 385.28 49.068 384.272 49.068C383.264 49.068 382.349 48.8907 381.528 48.536C380.706 48.1813 379.997 47.7053 379.4 47.108C378.802 46.492 378.336 45.7733 378 44.952C377.682 44.1307 377.524 43.2533 377.524 42.32C377.524 41.424 377.682 40.5747 378 39.772C378.336 38.9507 378.802 38.232 379.4 37.616C379.997 36.9813 380.706 36.4867 381.528 36.132C382.349 35.7587 383.264 35.572 384.272 35.572C385.28 35.572 386.204 35.7587 387.044 36.132C387.884 36.4867 388.602 36.9813 389.2 37.616C389.816 38.232 390.292 38.9507 390.628 39.772C390.964 40.5747 391.132 41.424 391.132 42.32ZM387.94 42.376C387.94 41.8347 387.846 41.3307 387.66 40.864C387.492 40.3787 387.24 39.9587 386.904 39.604C386.586 39.2493 386.204 38.9693 385.756 38.764C385.308 38.5587 384.813 38.456 384.272 38.456C383.73 38.456 383.236 38.5587 382.788 38.764C382.358 38.9693 381.985 39.2493 381.668 39.604C381.35 39.9587 381.098 40.3787 380.912 40.864C380.744 41.3307 380.66 41.8347 380.66 42.376C380.66 42.936 380.744 43.4587 380.912 43.944C381.098 44.4293 381.35 44.8493 381.668 45.204C381.985 45.5587 382.358 45.8387 382.788 46.044C383.236 46.2493 383.73 46.352 384.272 46.352C384.813 46.352 385.308 46.2493 385.756 46.044C386.204 45.8387 386.586 45.5587 386.904 45.204C387.24 44.8493 387.492 44.4293 387.66 43.944C387.846 43.4587 387.94 42.936 387.94 42.376Z" fill="black" fill-opacity="0.85"/>
<path fill-rule="evenodd" clip-rule="evenodd" d="M46.0001 27.9523C36.0584 27.9523 28 34.2111 28 41.9302C28 46.7309 31.1168 50.9631 35.8631 53.4802L33.8661 60.8138C33.6897 61.4618 34.4269 61.9783 34.993 61.6028L43.7467 55.7949C44.4854 55.8666 45.2362 55.9084 46.0001 55.9084C55.941 55.9084 63.9999 49.6498 63.9999 41.9302C63.9999 34.2111 55.941 27.9523 46.0001 27.9523Z" fill="black"/>
</svg>
